# xmcd
#
# Track frame offsets:
#	150
#	17677
#	27734
#	47768
#	60587
#	83134
#	92689
#	104151
#	119617
#	133596
#
# Disc length: 1975 seconds
#
# Revision: 0
# Processed by: cddbd v1.5.2PL0 Copyright (c) Steve Scherf et al.
# Submitted via: EasyCDDAExtractor 9.0.2.1
#
DISCID=8907b50a
DTITLE=Richard Sherfey And All God's Children - The Drunken Gospel According T
DTITLE=o Richard Sherfey And All God's Children
DYEAR=2008
DGENRE=Folk-Rock
TTITLE0=The Fold
TTITLE1=Streets Of Gold
TTITLE2=Broadway
TTITLE3=Rosalee
TTITLE4=I Need You (Like I Need A Drink)
TTITLE5=Meet Me At The Altar
TTITLE6=Looks Like I'll Be Drinkin'
TTITLE7=Hell To Pay
TTITLE8=Caroline
TTITLE9=Hey, Hey, Hallelujah
EXTD=
EXTT0=
EXTT1=
EXTT2=
EXTT3=
EXTT4=
EXTT5=
EXTT6=
EXTT7=
EXTT8=
EXTT9=
PLAYORDER=
